<svg width="51" height="79" viewBox="0 0 51 79" fill="none" xmlns="http://www.w3.org/2000/svg">
<path d="M23.592 60C23.1653 60 22.824 59.872 22.568 59.616C22.312 59.36 22.184 59.0187 22.184 58.592V28.128C22.184 27.7013 22.312 27.36 22.568 27.104C22.824 26.848 23.1653 26.72 23.592 26.72H24.68C25.1067 26.72 25.448 26.848 25.704 27.104C25.96 27.36 26.088 27.7013 26.088 28.128V58.592C26.088 59.0187 25.96 59.36 25.704 59.616C25.448 59.872 25.1067 60 24.68 60H23.592ZM22.888 19.872C22.4613 19.872 22.12 19.744 21.864 19.488C21.608 19.232 21.48 18.8907 21.48 18.464V16.032C21.48 15.6053 21.608 15.264 21.864 15.008C22.12 14.7093 22.4613 14.56 22.888 14.56H25.32C25.7467 14.56 26.088 14.7093 26.344 15.008C26.6427 15.264 26.792 15.6053 26.792 16.032V18.464C26.792 18.8907 26.6427 19.232 26.344 19.488C26.088 19.744 25.7467 19.872 25.32 19.872H22.888Z" fill="black"/>
<path d="M7.424 60C6.99733 60 6.656 59.872 6.4 59.616C6.144 59.36 6.016 59.0187 6.016 58.592V16.608C6.016 16.1813 6.144 15.84 6.4 15.584C6.656 15.328 6.99733 15.2 7.424 15.2H8.64C9.06667 15.2 9.408 15.328 9.664 15.584C9.92 15.84 10.048 16.1813 10.048 16.608V56.16H32.128C32.5973 56.16 32.96 56.288 33.216 56.544C33.472 56.8 33.6 57.1627 33.6 57.632V58.592C33.6 59.0187 33.472 59.36 33.216 59.616C32.96 59.872 32.5973 60 32.128 60H7.424Z" fill="black"/>
<path d="M45.384 60.0001C43.1653 60.0001 41.416 59.5307 40.136 58.5921C38.856 57.6534 37.96 56.3734 37.448 54.7521C36.936 53.1307 36.68 51.3174 36.68 49.3121V30.4321H31.688C31.2613 30.4321 30.92 30.3041 30.664 30.0481C30.408 29.7921 30.28 29.4507 30.28 29.0241V28.1281C30.28 27.7014 30.408 27.3601 30.664 27.1041C30.92 26.8481 31.2613 26.7201 31.688 26.7201H36.68V15.9681C36.68 15.5414 36.808 15.2001 37.064 14.9441C37.32 14.6881 37.6613 14.5601 38.088 14.5601H39.176C39.6027 14.5601 39.944 14.6881 40.2 14.9441C40.456 15.2001 40.584 15.5414 40.584 15.9681V26.7201H48.52C48.9467 26.7201 49.288 26.8481 49.544 27.1041C49.8 27.3601 49.928 27.7014 49.928 28.1281V29.0241C49.928 29.4507 49.8 29.7921 49.544 30.0481C49.288 30.3041 48.9467 30.4321 48.52 30.4321H40.584V49.0561C40.584 51.3174 40.9467 53.0881 41.672 54.3681C42.44 55.6481 43.784 56.2881 45.704 56.2881H49.16C49.5867 56.2881 49.928 56.4161 50.184 56.6721C50.44 56.9281 50.568 57.2694 50.568 57.6961V58.5921C50.568 59.0187 50.44 59.3601 50.184 59.6161C49.928 59.8721 49.5867 60.0001 49.16 60.0001H45.384Z" fill="black"/>
<circle cx="24.25" cy="17.25" r="3.25" fill="black"/>
</svg>
