<?xml version="1.0" encoding="utf-8"?>
<!-- Generator: Adobe Illustrator 24.3.0, SVG Export Plug-In . SVG Version: 6.00 Build 0)  -->
<svg version="1.1" id="Слой_1" xmlns="http://www.w3.org/2000/svg" xmlns:xlink="http://www.w3.org/1999/xlink" x="0px" y="0px"
	 viewBox="0 0 44.6 46" style="enable-background:new 0 0 44.6 46;" xml:space="preserve">
<path d="M17.6,46c-0.4,0-0.8-0.1-1-0.4c-0.3-0.3-0.4-0.6-0.4-1V14.1c0-0.4,0.1-0.8,0.4-1c0.3-0.3,0.6-0.4,1-0.4h1.1
	c0.4,0,0.8,0.1,1,0.4s0.4,0.6,0.4,1v30.5c0,0.4-0.1,0.8-0.4,1s-0.6,0.4-1,0.4H17.6z M16.9,5.9c-0.4,0-0.8-0.1-1-0.4
	c-0.3-0.3-0.4-0.6-0.4-1V2c0-0.4,0.1-0.8,0.4-1c0.3-0.3,0.6-0.4,1-0.4h2.4c0.4,0,0.8,0.1,1,0.4c0.3,0.3,0.4,0.6,0.4,1v2.4
	c0,0.4-0.1,0.8-0.4,1c-0.3,0.3-0.6,0.4-1,0.4H16.9z"/>
<path d="M1.4,46c-0.4,0-0.8-0.1-1-0.4S0,45,0,44.6v-42c0-0.4,0.1-0.8,0.4-1c0.3-0.3,0.6-0.4,1-0.4h1.2c0.4,0,0.8,0.1,1,0.4
	C3.9,1.8,4,2.2,4,2.6v39.6h22.1c0.5,0,0.8,0.1,1.1,0.4s0.4,0.6,0.4,1.1v1c0,0.4-0.1,0.8-0.4,1S26.6,46,26.1,46H1.4z"/>
<path d="M39.4,46c-2.2,0-4-0.5-5.2-1.4c-1.3-0.9-2.2-2.2-2.7-3.8c-0.5-1.6-0.8-3.4-0.8-5.4V16.4h-5c-0.4,0-0.8-0.1-1-0.4
	c-0.3-0.3-0.4-0.6-0.4-1v-0.9c0-0.4,0.1-0.8,0.4-1c0.3-0.3,0.6-0.4,1-0.4h5V2c0-0.4,0.1-0.8,0.4-1c0.3-0.3,0.6-0.4,1-0.4h1.1
	c0.4,0,0.8,0.1,1,0.4c0.3,0.3,0.4,0.6,0.4,1v10.8h7.9c0.4,0,0.8,0.1,1,0.4c0.3,0.3,0.4,0.6,0.4,1V15c0,0.4-0.1,0.8-0.4,1
	c-0.3,0.3-0.6,0.4-1,0.4h-7.9v18.6c0,2.3,0.4,4,1.1,5.3c0.8,1.3,2.1,1.9,4,1.9h3.5c0.4,0,0.8,0.1,1,0.4c0.3,0.3,0.4,0.6,0.4,1v0.9
	c0,0.4-0.1,0.8-0.4,1c-0.3,0.3-0.6,0.4-1,0.4H39.4z"/>
<circle cx="18.2" cy="3.2" r="3.2"/>
</svg>
