<svg width="57" height="79" viewBox="0 0 57 79" fill="none" xmlns="http://www.w3.org/2000/svg">
<path d="M23.336 28.336H27.88V62H23.336V28.336ZM25.64 20.976C24.7013 20.976 23.912 20.656 23.272 20.016C22.632 19.376 22.312 18.608 22.312 17.712C22.312 16.8587 22.632 16.112 23.272 15.472C23.912 14.832 24.7013 14.512 25.64 14.512C26.5787 14.512 27.368 14.832 28.008 15.472C28.648 16.0693 28.968 16.7947 28.968 17.648C28.968 18.5867 28.648 19.376 28.008 20.016C27.368 20.656 26.5787 20.976 25.64 20.976Z" fill="black"/>
<path d="M7.296 17.2H12.032V57.904H37.12V62H7.296V17.2Z" fill="black"/>
<path d="M55.064 59.952C54.2107 60.72 53.144 61.3173 51.864 61.744C50.6267 62.128 49.3253 62.32 47.96 62.32C44.8027 62.32 42.3707 61.4667 40.664 59.76C38.9573 58.0533 38.104 55.6427 38.104 52.528V32.176H32.088V28.336H38.104V20.976H42.648V28.336H52.888V32.176H42.648V52.272C42.648 54.2773 43.1387 55.8133 44.12 56.88C45.144 57.904 46.5947 58.416 48.472 58.416C49.4107 58.416 50.3067 58.2667 51.16 57.968C52.056 57.6693 52.824 57.2427 53.464 56.688L55.064 59.952Z" fill="black"/>
</svg>
